#N canvas 3 58 450 300 10;
#X floatatom 184 124 5 0 0 0 - - -, f 5;
#X obj 138 138 !=;
#X obj 247 138 !=;
#X msg 160 95 1;
#X msg 269 95 1;
#X msg 138 163 0;
#X msg 169 163 1;
#X msg 216 163 0;
#X msg 247 163 1;
#X obj 160 45 inlet;
#X obj 269 45 inlet;
#X obj 140 235 outlet;
#X obj 249 235 outlet;
#X connect 0 0 1 1;
#X connect 0 0 2 1;
#X connect 1 0 5 0;
#X connect 1 0 6 0;
#X connect 2 0 7 0;
#X connect 2 0 8 0;
#X connect 3 0 1 0;
#X connect 4 0 2 0;
#X connect 5 0 12 0;
#X connect 6 0 11 0;
#X connect 7 0 11 0;
#X connect 8 0 12 0;
#X connect 9 0 3 0;
#X connect 10 0 4 0;
