#N canvas 87 541 450 300 10;
#X obj 30 24 inlet;
#X obj 229 24 inlet;
#X obj 278 24 loadbang;
#X msg 229 51 0;
#X obj 229 108 tgl 15 0 empty empty empty 17 7 0 10 -262144 -1 -1 0
1;
#X msg 282 138 1;
#X obj 117 138 logic.dilemma;
#X obj 33 240 outlet;
#X obj 209 207 t a b;
#X obj 209 240 outlet;
#X text 29 8 message in;
#X text 230 8 busy flag;
#X text 249 106 busy;
#X text 283 123 set busy;
#X text 190 159 if busy;
#X text 80 158 if vacant;
#X text 210 260 to worker;
#X text 34 261 pass on;
#X connect 0 0 6 0;
#X connect 1 0 3 0;
#X connect 2 0 3 0;
#X connect 3 0 4 0;
#X connect 4 0 6 1;
#X connect 5 0 4 0;
#X connect 6 0 8 0;
#X connect 6 1 7 0;
#X connect 8 0 9 0;
#X connect 8 1 5 0;
