#N canvas 252 157 450 300 10;
#X obj 122 49 inlet;
#X obj 264 49 inlet;
#X obj 166 103 t a b;
#X obj 227 103 f 0;
#X obj 166 151 == 0;
#X obj 127 189 spigot;
#X obj 127 247 outlet;
#X obj 253 247 outlet;
#X obj 253 189 spigot;
#X text 121 33 data;
#X text 261 33 control 0/1;
#X text 130 207 if control==0;
#X text 256 207 if control==1;
#X connect 0 0 2 0;
#X connect 1 0 3 1;
#X connect 2 0 5 0;
#X connect 2 0 8 0;
#X connect 2 1 3 0;
#X connect 3 0 4 0;
#X connect 3 0 8 1;
#X connect 4 0 5 1;
#X connect 5 0 6 0;
#X connect 8 0 7 0;
