#N canvas 16 183 450 300 10;
#X obj 95 13 inlet;
#X obj 95 40 t a b;
#X obj 195 129 mtof;
#X obj 195 156 osc~;
#X obj 196 232 *~;
#X obj 196 259 outlet~;
#X obj 314 157 vline~;
#X msg 314 130 1 20 \, 0 800 20;
#X text 137 13 MIDI note in;
#X text 316 113 Attack+Decay;
#X text 318 175 Volume Envelope;
#X text 190 277 audio out;
#X obj 58 162 delay 820;
#X text 47 145 total duration;
#X text 48 278 bang when rdy;
#X obj 58 259 outlet;
#X connect 0 0 1 0;
#X connect 1 0 2 0;
#X connect 1 1 7 0;
#X connect 1 1 12 0;
#X connect 2 0 3 0;
#X connect 3 0 4 0;
#X connect 4 0 5 0;
#X connect 6 0 4 1;
#X connect 7 0 6 0;
#X connect 12 0 15 0;
