#N canvas 1041 321 450 300 10;
#X obj 95 33 inlet;
#X obj 95 60 t a b;
#X obj 95 119 mtof;
#X obj 95 146 osc~;
#X obj 96 222 *~;
#X obj 96 249 outlet~;
#X obj 214 147 vline~;
#X msg 214 120 1 20 \, 0 800 20;
#X text 137 33 MIDI note in;
#X text 216 103 Attack+Decay;
#X text 218 165 Volume Envelope;
#X connect 0 0 1 0;
#X connect 1 0 2 0;
#X connect 1 1 7 0;
#X connect 2 0 3 0;
#X connect 3 0 4 0;
#X connect 4 0 5 0;
#X connect 6 0 4 1;
#X connect 7 0 6 0;
