#N canvas 578 242 450 300 10;
#X obj 31 29 inlet;
#X obj 31 157 outlet;
#X obj 31 107 hradio 15 1 0 8 empty empty empty 0 -8 0 10 -262144 -1
-1 7;
#X obj 31 76 mod 8;
#X connect 0 0 3 0;
#X connect 2 0 1 0;
#X connect 3 0 2 0;
