#N canvas 829 659 814 300 10;
#X obj 136 26 inlet;
#X obj 230 26 inlet;
#X obj 324 26 inlet;
#X obj 42 26 inlet;
#X obj 515 26 inlet;
#X obj 609 26 inlet;
#X obj 703 26 inlet;
#X obj 421 26 inlet;
#X obj 32 256 outlet;
#X obj 126 256 outlet;
#X obj 220 256 outlet;
#X obj 314 256 outlet;
#X obj 410 256 outlet;
#X obj 504 256 outlet;
#X obj 598 256 outlet;
#X obj 692 256 outlet;
#X obj 42 89 tgl.onoff;
#X obj 136 89 tgl.onoff;
#X obj 230 89 tgl.onoff;
#X obj 324 89 tgl.onoff;
#X obj 421 89 tgl.onoff;
#X obj 515 89 tgl.onoff;
#X obj 609 89 tgl.onoff;
#X obj 703 89 tgl.onoff;
#X connect 0 0 17 0;
#X connect 1 0 18 0;
#X connect 2 0 19 0;
#X connect 3 0 16 0;
#X connect 4 0 21 0;
#X connect 5 0 22 0;
#X connect 6 0 23 0;
#X connect 7 0 20 0;
#X connect 16 0 9 0;
#X connect 16 0 10 0;
#X connect 16 0 11 0;
#X connect 16 0 12 0;
#X connect 16 0 13 0;
#X connect 16 0 14 0;
#X connect 16 0 15 0;
#X connect 16 1 8 0;
#X connect 17 0 8 0;
#X connect 17 0 10 0;
#X connect 17 0 11 0;
#X connect 17 0 12 0;
#X connect 17 0 13 0;
#X connect 17 0 14 0;
#X connect 17 0 15 0;
#X connect 17 1 9 0;
#X connect 18 0 8 0;
#X connect 18 0 9 0;
#X connect 18 0 11 0;
#X connect 18 0 12 0;
#X connect 18 0 13 0;
#X connect 18 0 14 0;
#X connect 18 0 15 0;
#X connect 18 1 10 0;
#X connect 19 0 8 0;
#X connect 19 0 9 0;
#X connect 19 0 10 0;
#X connect 19 0 12 0;
#X connect 19 0 13 0;
#X connect 19 0 14 0;
#X connect 19 0 15 0;
#X connect 19 1 11 0;
#X connect 20 0 8 0;
#X connect 20 0 9 0;
#X connect 20 0 10 0;
#X connect 20 0 11 0;
#X connect 20 0 13 0;
#X connect 20 0 14 0;
#X connect 20 0 15 0;
#X connect 20 1 12 0;
#X connect 21 0 8 0;
#X connect 21 0 9 0;
#X connect 21 0 10 0;
#X connect 21 0 11 0;
#X connect 21 0 12 0;
#X connect 21 0 14 0;
#X connect 21 0 15 0;
#X connect 21 1 13 0;
#X connect 22 0 8 0;
#X connect 22 0 9 0;
#X connect 22 0 10 0;
#X connect 22 0 11 0;
#X connect 22 0 12 0;
#X connect 22 0 13 0;
#X connect 22 0 15 0;
#X connect 22 1 14 0;
#X connect 23 0 14 0;
#X connect 23 0 13 0;
#X connect 23 0 12 0;
#X connect 23 0 11 0;
#X connect 23 0 10 0;
#X connect 23 0 9 0;
#X connect 23 0 8 0;
#X connect 23 1 15 0;
