#N canvas 63 226 450 453 10;
#X obj 229 287 float;
#X obj 307 211 + 1;
#X floatatom 229 367 5 0 0 0 - - -, f 5;
#X obj 194 48 bng 15 250 50 0 empty empty empty 17 7 0 10 -262144 -1
-1;
#X obj 239 48 bng 15 250 50 0 empty empty empty 17 7 0 10 -262144 -1
-1;
#X obj 59 159 - 1;
#X obj 59 126 spigot;
#X obj 301 180 spigot;
#X obj 98 101 tgl 15 0 empty empty empty 17 7 0 10 -262144 -1 -1 0
1;
#X obj 340 156 tgl 15 0 empty empty empty 17 7 0 10 -262144 -1 -1 0
1;
#X obj 171 17 inlet;
#X obj 240 17 inlet;
#X obj 229 402 outlet;
#X obj 229 340 float;
#X text 107 312 debounce;
#X obj 123 101 delay 0.1;
#X obj 322 99 delay 0.1;
#X obj 167 312 delay 0.1;
#X connect 0 0 6 0;
#X connect 0 0 7 0;
#X connect 0 0 13 1;
#X connect 0 0 17 0;
#X connect 1 0 0 1;
#X connect 2 0 12 0;
#X connect 3 0 8 0;
#X connect 3 0 0 0;
#X connect 3 0 15 0;
#X connect 4 0 9 0;
#X connect 4 0 0 0;
#X connect 4 0 16 0;
#X connect 5 0 0 1;
#X connect 6 0 5 0;
#X connect 7 0 1 0;
#X connect 8 0 6 1;
#X connect 9 0 7 1;
#X connect 10 0 3 0;
#X connect 11 0 4 0;
#X connect 13 0 2 0;
#X connect 15 0 8 0;
#X connect 15 0 0 0;
#X connect 16 0 9 0;
#X connect 16 0 0 0;
#X connect 17 0 13 0;
