#N canvas 370 505 173 283 10;
#X obj 1 1 cnv 15 170 280 empty empty empty 20 12 0 14 -203904 -66577
0;
#X obj 18 39 vsl 15 128 0 127 0 0 empty ctl_K5_A K5 0 -9 0 10 -262144
-1 -1 0 1;
#X obj 43 39 vsl 15 128 0 127 0 0 empty ctl_K6_A K6 0 -9 0 10 -262144
-1 -1 0 1;
#X obj 68 39 vsl 15 128 0 127 0 0 empty ctl_K7_A K7 0 -9 0 10 -262144
-1 -1 0 1;
#X obj 93 39 vsl 15 128 0 127 0 0 empty ctl_K8_A K8 0 -9 0 10 -262144
-1 -1 0 1;
#X obj 18 191 outlet K5;
#X obj 43 208 outlet K6;
#X obj 68 225 outlet K7;
#X obj 93 242 outlet K8;
#X connect 1 0 5 0;
#X connect 2 0 6 0;
#X connect 3 0 7 0;
#X connect 4 0 8 0;
