#N canvas 370 505 173 283 10;
#X obj 1 1 cnv 15 170 280 empty empty empty 20 12 0 14 -261234 -66577
0;
#X obj 18 39 vsl 15 128 0 127 0 0 empty ctl_K1_B K1 0 -9 0 10 -262144
-1 -1 0 1;
#X obj 43 39 vsl 15 128 0 127 0 0 empty ctl_K2_B K2 0 -9 0 10 -262144
-1 -1 0 1;
#X obj 68 39 vsl 15 128 0 127 0 0 empty ctl_K3_B K3 0 -9 0 10 -262144
-1 -1 0 1;
#X obj 93 39 vsl 15 128 0 127 0 0 empty ctl_K4_B K4 0 -9 0 10 -262144
-1 -1 0 1;
#X obj 18 191 outlet K1;
#X obj 43 208 outlet K2;
#X obj 68 225 outlet K3;
#X obj 93 242 outlet K4;
#X connect 1 0 5 0;
#X connect 2 0 6 0;
#X connect 3 0 7 0;
#X connect 4 0 8 0;
